<?xml version="1.0" encoding="utf-8"?>
<!-- Generator: Adobe Illustrator 22.1.0, SVG Export Plug-In . SVG Version: 6.00 Build 0)  -->
<svg version="1.1" id="Layer_1" xmlns="http://www.w3.org/2000/svg" xmlns:xlink="http://www.w3.org/1999/xlink" x="0px" y="0px"
	 width="64px" height="64px" viewBox="0 0 64 64" style="enable-background:new 0 0 64 64;" xml:space="preserve">
<style type="text/css">
	.shadow{opacity:0.19;enable-background:new;}
</style>
<ellipse class="shadow" cx="32.5" cy="59.6" rx="13.9" ry="4.4"/>
<linearGradient id="main-gradient" gradientUnits="userSpaceOnUse" x1="15.6987" y1="8.7987" x2="49.1" y2="42.2">
	<stop offset="0%" stop-color="#9C26F9">
  	<animate attributeName="stop-color" values="#9C26F9; #FF1F13; #9C26F9" dur="8s" repeatCount="indefinite"></animate>
  </stop>
	<stop offset="100%" stop-color="#7AD2FA">
  	<animate attributeName="stop-color" values="#7AD2FA; #DE93FF; #7AD2FA" dur="8s" repeatCount="indefinite"></animate>
  </stop>
</linearGradient>
<path fill="url('#main-gradient')" d="M46,5.5C42.2,1.7,37.8,0,32.5,0S22.8,1.9,19,5.5c-3.7,3.6-5.5,8.1-5.5,13.5c0,4.4,1.7,10.1,5.2,17.3
	s6.3,12.3,8.4,15.2c2.1,3.1,3.9,5.5,5.2,7.5l4.8-6.7c3.2-4.5,6.3-10,9.5-16.7s4.8-12.1,4.8-16.5C51.4,13.7,49.6,9.2,46,5.5z
	 M42.4,28.8c-2.7,2.7-6,4-9.9,4c-4,0-7.2-1.3-9.9-4s-4-6-4-9.9s1.3-7.2,4-9.9s6-4,9.9-4s7.2,1.3,9.9,4s4,6,4,9.9
	C46.4,22.9,45,26.1,42.4,28.8z M38.5,25c-1.6,1.6-3.7,2.5-6,2.5c-2.5,0-4.4-0.8-6-2.5c-1.6-1.6-2.5-3.7-2.5-6s0.8-4.4,2.5-6
	s3.7-2.5,6-2.5c2.4,0,4.4,0.8,6,2.5s2.5,3.7,2.5,6C41,21.4,40.2,23.3,38.5,25z"/>
</svg>
