<svg xmlns="http://www.w3.org/2000/svg" viewBox="0 0 500 500">
<style type="text/css">
	.st0 {
		fill:url(#SVGID_1_);
	}
	.st1 {
		fill:#FFFFFF;
	}
	@media (prefers-color-scheme: dark) {
		.st0 {
			fill: url(#SVGID_2_);
		}
		.st1 {
			fill: #FFFFFF;
		}
	}
</style>
<linearGradient id="SVGID_1_" gradientUnits="userSpaceOnUse" x1="17.5477" y1="17.51" x2="482.4005" y2="482.3628">
	<stop  offset="0" style="stop-color:#B721FF"/>
	<stop  offset="1" style="stop-color:#21D4FD"/>
</linearGradient>
<linearGradient id="SVGID_2_" gradientUnits="userSpaceOnUse" x1="17.5477" y1="17.51" x2="482.4005" y2="482.3628">
	<stop  offset="0" style="stop-color:#f52587"/>
	<stop  offset="1" style="stop-color:#f8b538"/>
</linearGradient>
<path class="st0" d="M440,499.9H60c-33.1,0-60-26.9-60-60v-380c0-33.1,26.9-60,60-60h380c33.1,0,60,26.9,60,60v380
	C500,473.1,473.1,499.9,440,499.9z"/>
<g>
	<path class="st1" d="M364,389.3c-8.8,4.2-17.8,8.3-27.1,12.4c-9.3,4-19.2,7.6-29.8,10.5c-10.5,3-22,5.4-34.5,7.1
		c-12.5,1.8-26.1,2.6-40.8,2.6c-47.1,0-83.3-10.5-108.8-31.6C97.5,369.3,84.8,334.2,84.8,285c0-28.4,4.4-55.2,13.2-80.3
		c8.8-25.1,21.8-47.1,39-65.9c17.2-18.8,38.5-33.6,63.8-44.5C226,83.4,255,77.9,287.6,77.9c15.5,0,29.6,1.1,42.4,3.2
		c12.8,2.1,24.4,4.8,34.8,8.2c10.4,3.3,19.7,6.9,27.9,10.8c8.2,3.9,15.7,7.6,22.4,11.1l-19,98h-94.8c0.3-3.5,0.8-8.1,1.3-13.7
		c0.5-5.6,1-11.3,1.3-17.1c0.3-5.8,0.7-11.5,1.1-17.1c0.3-5.6,0.5-10.4,0.5-14.2c0-2.8-0.2-6.1-0.5-9.7c-0.4-3.7-1.2-7.3-2.6-10.8
		c-1.4-3.5-3.6-6.4-6.6-8.7c-3-2.3-6.9-3.4-11.9-3.4c-9.1,0-17.5,3.8-25,11.3c-7.6,7.6-14.3,17.6-20.3,30
		c-6,12.5-11.2,26.6-15.8,42.4c-4.6,15.8-8.3,31.9-11.3,48.2c-3,16.3-5.3,32.4-6.9,48.2c-1.6,15.8-2.4,29.7-2.4,41.6
		c0,3.5,0.2,7.9,0.5,13.2c0.3,5.3,1.4,10.4,3.2,15.3c1.8,4.9,4.5,9.1,8.2,12.6c3.7,3.5,8.7,5.3,15,5.3c10.9,0,21.4-6.8,31.6-20.3
		c10.2-13.5,19.1-37.7,26.9-72.4h97.5L364,389.3z"/>
</g>
</svg>
