<svg enable-background="new 0 0 160 42" height="42" viewBox="0 0 160 42" width="160" xmlns="http://www.w3.org/2000/svg"><path d="m26.3 30.1c-.8.4-1.7.8-2.6 1.2s-1.8.7-2.8 1-2.1.5-3.2.7c-1.2.2-2.5.2-3.8.2-4.4 0-7.8-1-10.2-3-2.5-1.9-3.7-5.2-3.7-9.9 0-2.7.4-5.2 1.2-7.6s2-4.4 3.7-6.2c1.6-1.8 3.6-3.2 6-4.2s5.1-1.5 8.2-1.5c1.5 0 2.8.1 4 .3s2.3.5 3.3.8 1.8.7 2.6 1c.8.4 1.5.7 2.1 1l-1.8 9.2h-8.9c0-.3.1-.8.1-1.3s.1-1.1.1-1.6.1-1.1.1-1.6 0-1 0-1.3 0-.6 0-.9-.1-.7-.2-1-.3-.6-.6-.8-.7-.3-1.1-.3c-.9 0-1.6.4-2.4 1.1-.7.7-1.4 1.6-1.9 2.8-.6 1.2-1.1 2.5-1.5 4s-.8 3-1.1 4.5-.5 3-.6 4.5c-.2 1.5-.3 2.8-.3 3.9v1.2c0 .5.1 1 .3 1.4.2.5.4.9.8 1.2.3.3.8.5 1.4.5 1 0 2-.6 3-1.9s1.8-3.5 2.5-6.8h9.2zm7.2-18.6h8.1l.7 3.7h.3c.8-1.2 1.7-2.2 2.9-3s2.8-1.2 4.7-1.2h.6c.3 0 .6.1.9.1.3.1.7.2 1.1.3s.8.4 1.1.6l-2.2 10.2h-5.4c-.1-2-.2-3.5-.5-4.3s-.8-1.2-1.4-1.2c-.3 0-.7.1-1.1.2s-.8.5-1.2 1l-3.2 14.8h-9.9zm29 21.3h-10.1l4.5-21.3h10.2zm5.9-27.8c0 .8-.2 1.4-.5 2s-.7 1-1.2 1.4-1.1.7-1.8.9-1.3.3-2 .3c-1.3 0-2.4-.3-3.3-.9s-1.3-1.6-1.3-3c0-.7.1-1.4.4-2s.7-1.1 1.2-1.4c.5-.4 1.1-.7 1.8-.9s1.4-.3 2.1-.3c1.3 0 2.4.3 3.3.9.8.7 1.3 1.7 1.3 3zm13.7 12.8c0-.2.1-.3.1-.5s0-.3 0-.5c0-.6-.1-1.1-.3-1.7-.2-.5-.6-.8-1.3-.8-.6 0-1.1.2-1.7.7s-.8 1.1-.8 1.9c0 .5.1.9.4 1.3.3.3.7.6 1.1.8.5.2 1 .4 1.6.5s1.1.3 1.7.4c.8.2 1.5.4 2.3.7.7.3 1.3.7 1.9 1.1.6.5 1 1 1.3 1.7s.5 1.5.5 2.5c0 1.4-.3 2.6-1 3.5-.6.9-1.5 1.7-2.7 2.3-1.1.6-2.5 1-4 1.2s-3.2.3-4.9.3c-2.7 0-4.9-.2-6.6-.6-1.8-.4-3-.8-3.7-1.1l1-5h6.7v.5.5c0 .8.2 1.4.5 1.8s.9.7 1.8.7c1 0 1.6-.3 2.1-.8.4-.5.6-1 .6-1.5s-.2-.9-.5-1.2-.8-.6-1.3-.9c-.5-.2-1.1-.5-1.8-.6-.6-.2-1.3-.4-1.9-.5-.4-.1-.9-.3-1.5-.5-.5-.2-1.1-.6-1.6-1s-.9-1-1.2-1.7-.5-1.5-.5-2.6c0-1.5.4-2.7 1.1-3.6.7-1 1.6-1.8 2.8-2.4 1.1-.6 2.4-1 3.9-1.3 1.4-.3 2.9-.4 4.3-.4 1.8 0 3.5.2 5.2.5 1.6.3 2.9.8 4 1.3l-1.1 5zm16.3 23.3h-10.1l6.2-29.6h8.1l.9 3.2h.3c1.2-1.3 2.5-2.2 4-2.7s2.9-.8 4.3-.8c1.2 0 2.1.2 2.9.5s1.4.8 1.9 1.4.8 1.3 1 2.1.3 1.7.3 2.6c0 .5 0 1.2-.1 2.1s-.2 2-.4 3.1-.6 2.3-1 3.5-1 2.3-1.7 3.3-1.6 1.8-2.7 2.4-2.4.9-3.8.9c-.8 0-1.6-.1-2.4-.3s-1.5-.5-2.1-.8-1.2-.7-1.7-1.2c-.5-.4-.8-.9-1.1-1.4h-.3zm5.2-12.7c.8 0 1.5-.4 2-1.3.5-.8 1-1.8 1.3-3 .3-1.1.6-2.3.7-3.4s.2-2 .2-2.6c0-.7-.1-1.2-.3-1.6s-.6-.6-1.2-.6-1.2.2-1.8.7c-.6.4-1 .8-1.2 1.2l-1.9 9.1c.3.4.6.7.9 1.1.4.2.8.4 1.3.4zm24.9 4.4h-10.1l4.5-21.3h10.2zm5.9-27.8c0 .8-.2 1.4-.5 2s-.7 1-1.2 1.4-1.1.7-1.8.9-1.3.3-2 .3c-1.3 0-2.4-.3-3.3-.9s-1.3-1.6-1.3-3c0-.7.1-1.4.4-2s.7-1.1 1.2-1.4c.5-.4 1.1-.7 1.8-.9s1.4-.3 2.1-.3c1.3 0 2.4.3 3.3.9.9.7 1.3 1.7 1.3 3zm14.2 6c3.9 0 6.8.7 8.6 2.1 1.9 1.5 2.8 3.9 2.8 7.2 0 2.1-.3 4-1 5.6-.7 1.7-1.7 3-2.9 4.1-2.5 2.1-6.1 3.2-10.9 3.2-4.1 0-7-.8-8.7-2.3-1.9-1.6-2.8-4-2.8-7.3 0-2.1.4-4.1 1.3-5.8.9-1.8 2.1-3.2 3.8-4.4 2.3-1.6 5.6-2.4 9.8-2.4zm-3.4 18.8c.8 0 1.5-.5 2.2-1.4.6-.9 1.1-2.1 1.5-3.4s.6-2.7.8-4.2c.2-1.4.3-2.7.3-3.7 0-.9-.1-1.6-.3-2.1s-.6-.7-1.2-.7c-.9 0-1.7.5-2.3 1.4-.6 1-1.2 2.1-1.6 3.4s-.7 2.7-.9 4.1-.3 2.5-.3 3.4c.1 2.2.7 3.2 1.8 3.2z" fill="#fff"/></svg>