<?xml version="1.0" encoding="utf-8"?>
<!-- Generator: Adobe Illustrator 22.1.0, SVG Export Plug-In . SVG Version: 6.00 Build 0)  -->
<svg version="1.1" id="Layer_1" xmlns="http://www.w3.org/2000/svg" xmlns:xlink="http://www.w3.org/1999/xlink" x="0px" y="0px"
	 width="120px" height="34px" viewBox="0 0 120 34" style="enable-background:new 0 0 120 34;" xml:space="preserve">
<style type="text/css">
	.st0{fill:#FFFFFF;}
</style>
<path class="st0" d="M19.6,23.8c-0.6,0.3-1.2,0.6-1.9,0.9c-0.7,0.3-1.3,0.5-2.1,0.7c-0.7,0.2-1.5,0.4-2.4,0.5
	c-0.9,0.1-1.8,0.2-2.9,0.2c-3.3,0-5.8-0.7-7.6-2.2C0.9,22.4,0,19.9,0,16.5c0-2,0.3-3.9,0.9-5.6c0.6-1.8,1.5-3.3,2.7-4.6
	c1.2-1.3,2.7-2.4,4.5-3.1C9.9,2.4,11.9,2,14.2,2c1.1,0,2.1,0.1,3,0.2c0.9,0.1,1.7,0.3,2.4,0.6c0.7,0.2,1.4,0.5,2,0.8
	c0.6,0.3,1.1,0.5,1.6,0.8l-1.3,6.9h-6.6c0-0.2,0.1-0.6,0.1-1c0-0.4,0.1-0.8,0.1-1.2c0-0.4,0-0.8,0.1-1.2c0-0.4,0-0.7,0-1
	c0-0.2,0-0.4,0-0.7c0-0.3-0.1-0.5-0.2-0.8c-0.1-0.2-0.3-0.4-0.5-0.6c-0.2-0.2-0.5-0.2-0.8-0.2c-0.6,0-1.2,0.3-1.8,0.8
	c-0.5,0.5-1,1.2-1.4,2.1c-0.4,0.9-0.8,1.9-1.1,3c-0.3,1.1-0.6,2.2-0.8,3.4c-0.2,1.1-0.4,2.3-0.5,3.4c-0.1,1.1-0.2,2.1-0.2,2.9
	c0,0.2,0,0.6,0,0.9c0,0.4,0.1,0.7,0.2,1.1c0.1,0.3,0.3,0.6,0.6,0.9c0.3,0.2,0.6,0.4,1.1,0.4c0.8,0,1.5-0.5,2.2-1.4
	c0.7-0.9,1.3-2.6,1.9-5.1H21L19.6,23.8z M24.9,9.9h6l0.6,2.8h0.3c0.6-0.9,1.3-1.6,2.2-2.3c0.9-0.6,2.1-0.9,3.5-0.9
	c0.1,0,0.3,0,0.5,0c0.2,0,0.4,0,0.7,0.1c0.3,0.1,0.5,0.1,0.8,0.3c0.3,0.1,0.6,0.3,0.8,0.5L38.6,18h-4c0-1.5-0.2-2.6-0.4-3.2
	c-0.2-0.6-0.6-0.9-1.1-0.9c-0.2,0-0.5,0.1-0.8,0.2c-0.3,0.1-0.6,0.4-0.9,0.7l-2.4,11h-7.5L24.9,9.9z M46.5,25.8H39l3.4-15.9H50
	L46.5,25.8z M50.9,5.1c0,0.6-0.1,1.1-0.4,1.5C50.3,7,50,7.4,49.6,7.6c-0.4,0.3-0.8,0.5-1.3,0.7c-0.5,0.1-1,0.2-1.5,0.2
	c-1,0-1.8-0.2-2.5-0.7c-0.7-0.5-1-1.2-1-2.2c0-0.5,0.1-1,0.3-1.5c0.2-0.4,0.5-0.8,0.9-1.1c0.4-0.3,0.8-0.5,1.3-0.6
	c0.5-0.1,1-0.2,1.6-0.2c1,0,1.8,0.2,2.4,0.7C50.6,3.4,50.9,4.1,50.9,5.1z M61.2,14.6c0-0.1,0-0.2,0.1-0.4c0-0.1,0-0.3,0-0.4
	c0-0.4-0.1-0.9-0.2-1.2c-0.2-0.4-0.5-0.6-0.9-0.6c-0.4,0-0.8,0.2-1.3,0.5c-0.4,0.4-0.6,0.8-0.6,1.4c0,0.4,0.1,0.7,0.3,0.9
	c0.2,0.2,0.5,0.4,0.8,0.6c0.3,0.1,0.7,0.3,1.2,0.4c0.4,0.1,0.9,0.2,1.3,0.3c0.6,0.1,1.1,0.3,1.7,0.5c0.5,0.2,1,0.5,1.4,0.8
	c0.4,0.3,0.8,0.8,1,1.3c0.2,0.5,0.4,1.1,0.4,1.9c0,1-0.2,1.9-0.7,2.6c-0.5,0.7-1.1,1.3-2,1.7c-0.8,0.4-1.8,0.7-3,0.9
	c-1.1,0.2-2.4,0.3-3.7,0.3c-2,0-3.6-0.1-4.9-0.4c-1.3-0.3-2.2-0.6-2.7-0.8l0.8-3.7h5c0,0.1,0,0.2,0,0.4c0,0.1,0,0.2,0,0.4
	c0,0.6,0.1,1,0.4,1.3c0.3,0.3,0.7,0.5,1.3,0.5c0.7,0,1.2-0.2,1.5-0.6c0.3-0.4,0.5-0.8,0.5-1.1c0-0.3-0.1-0.6-0.4-0.9
	c-0.3-0.3-0.6-0.5-1-0.7c-0.4-0.2-0.8-0.3-1.3-0.5c-0.5-0.1-0.9-0.3-1.4-0.4c-0.3-0.1-0.7-0.2-1.1-0.4c-0.4-0.2-0.8-0.4-1.2-0.7
	c-0.4-0.3-0.7-0.7-0.9-1.2c-0.2-0.5-0.4-1.1-0.4-1.9c0-1.1,0.3-2,0.8-2.7c0.5-0.7,1.2-1.3,2.1-1.8c0.8-0.4,1.8-0.8,2.9-1
	C57.9,9.6,59,9.5,60,9.5c1.4,0,2.6,0.1,3.8,0.4c1.2,0.2,2.2,0.6,3,1L66,14.6H61.2z M73.3,32h-7.5l4.6-22.1h6l0.7,2.4h0.2
	c0.9-0.9,1.9-1.6,3-2c1.1-0.4,2.2-0.6,3.2-0.6c0.9,0,1.6,0.1,2.2,0.4c0.6,0.3,1,0.6,1.4,1.1c0.3,0.4,0.6,1,0.7,1.6
	c0.1,0.6,0.2,1.3,0.2,2c0,0.3,0,0.9-0.1,1.5c0,0.7-0.2,1.5-0.3,2.3c-0.2,0.8-0.4,1.7-0.7,2.6c-0.3,0.9-0.7,1.7-1.3,2.5
	c-0.5,0.7-1.2,1.3-2,1.8c-0.8,0.5-1.8,0.7-2.9,0.7c-0.6,0-1.2-0.1-1.8-0.2c-0.6-0.1-1.1-0.3-1.6-0.6c-0.5-0.2-0.9-0.5-1.2-0.9
	c-0.4-0.3-0.6-0.7-0.8-1h-0.2L73.3,32z M77.2,22.5c0.6,0,1.1-0.3,1.5-0.9c0.4-0.6,0.7-1.4,1-2.2c0.2-0.8,0.4-1.7,0.5-2.5
	c0.1-0.8,0.2-1.5,0.2-1.9c0-0.5-0.1-0.9-0.2-1.2c-0.2-0.3-0.4-0.5-0.9-0.5c-0.5,0-0.9,0.2-1.3,0.5c-0.4,0.3-0.7,0.6-0.9,0.9
	l-1.4,6.8c0.2,0.3,0.4,0.5,0.7,0.8C76.5,22.4,76.8,22.5,77.2,22.5z M95.8,25.8h-7.5l3.4-15.9h7.6L95.8,25.8z M100.1,5.1
	c0,0.6-0.1,1.1-0.4,1.5c-0.2,0.4-0.5,0.8-0.9,1.1c-0.4,0.3-0.8,0.5-1.3,0.7c-0.5,0.1-1,0.2-1.5,0.2c-1,0-1.8-0.2-2.5-0.7
	c-0.7-0.5-1-1.2-1-2.2c0-0.5,0.1-1,0.3-1.5c0.2-0.4,0.5-0.8,0.9-1.1c0.4-0.3,0.8-0.5,1.3-0.6c0.5-0.1,1-0.2,1.6-0.2
	c1,0,1.8,0.2,2.4,0.7C99.8,3.4,100.1,4.1,100.1,5.1z M110.7,9.5c2.9,0,5.1,0.5,6.4,1.5c1.4,1.1,2.1,2.9,2.1,5.4
	c0,1.5-0.3,2.9-0.8,4.2c-0.5,1.2-1.2,2.3-2.2,3.1c-1.9,1.6-4.6,2.4-8.1,2.4c-3,0-5.2-0.6-6.5-1.7c-1.4-1.2-2.1-3-2.1-5.4
	c0-1.6,0.3-3.1,1-4.4c0.7-1.3,1.6-2.4,2.8-3.2C105.1,10.1,107.6,9.5,110.7,9.5z M108.2,23.6c0.6,0,1.1-0.3,1.6-1
	c0.5-0.7,0.8-1.5,1.1-2.5c0.3-1,0.5-2,0.6-3.1c0.1-1.1,0.2-2,0.2-2.8c0-0.7-0.1-1.2-0.2-1.6c-0.1-0.4-0.4-0.5-0.9-0.5
	c-0.7,0-1.2,0.4-1.7,1.1c-0.5,0.7-0.9,1.6-1.2,2.5c-0.3,1-0.5,2-0.6,3c-0.1,1-0.2,1.9-0.2,2.5C106.9,22.8,107.3,23.6,108.2,23.6z"/>
</svg>
