<?xml version="1.0" encoding="utf-8"?>
<!-- Generator: Adobe Illustrator 22.1.0, SVG Export Plug-In . SVG Version: 6.00 Build 0)  -->
<svg version="1.1" id="Layer_1" xmlns="http://www.w3.org/2000/svg" xmlns:xlink="http://www.w3.org/1999/xlink" x="0px" y="0px"
	 width="160px" height="42px" viewBox="0 0 160 42" style="enable-background:new 0 0 160 42;" xml:space="preserve">
<style type="text/css">
	.st0{fill:#2D2D2D;}
</style>
<path class="st0" d="M26.3,30.1c-0.8,0.4-1.7,0.8-2.6,1.2c-0.9,0.4-1.8,0.7-2.8,1c-1,0.3-2.1,0.5-3.2,0.7c-1.2,0.2-2.5,0.2-3.8,0.2
	c-4.4,0-7.8-1-10.2-3C1.2,28.3,0,25,0,20.3c0-2.7,0.4-5.2,1.2-7.6s2-4.4,3.7-6.2c1.6-1.8,3.6-3.2,6-4.2s5.1-1.5,8.2-1.5
	c1.5,0,2.8,0.1,4,0.3s2.3,0.5,3.3,0.8s1.8,0.7,2.6,1c0.8,0.4,1.5,0.7,2.1,1l-1.8,9.2h-8.9c0-0.3,0.1-0.8,0.1-1.3s0.1-1.1,0.1-1.6
	s0.1-1.1,0.1-1.6s0-1,0-1.3s0-0.6,0-0.9s-0.1-0.7-0.2-1s-0.3-0.6-0.6-0.8c-0.3-0.2-0.7-0.3-1.1-0.3c-0.9,0-1.6,0.4-2.4,1.1
	C15.7,6.1,15,7,14.5,8.2c-0.6,1.2-1.1,2.5-1.5,4s-0.8,3-1.1,4.5s-0.5,3-0.6,4.5C11.1,22.7,11,24,11,25.1c0,0.3,0,0.7,0,1.2
	s0.1,1,0.3,1.4c0.2,0.5,0.4,0.9,0.8,1.2c0.3,0.3,0.8,0.5,1.4,0.5c1,0,2-0.6,3-1.9s1.8-3.5,2.5-6.8h9.2L26.3,30.1z M33.5,11.5h8.1
	l0.7,3.7h0.3c0.8-1.2,1.7-2.2,2.9-3s2.8-1.2,4.7-1.2c0.1,0,0.3,0,0.6,0s0.6,0.1,0.9,0.1c0.3,0.1,0.7,0.2,1.1,0.3
	c0.4,0.1,0.8,0.4,1.1,0.6l-2.2,10.2h-5.4c-0.1-2-0.2-3.5-0.5-4.3s-0.8-1.2-1.4-1.2c-0.3,0-0.7,0.1-1.1,0.2c-0.4,0.1-0.8,0.5-1.2,1
	l-3.2,14.8H29L33.5,11.5z M62.5,32.8H52.4l4.5-21.3h10.2L62.5,32.8z M68.4,5c0,0.8-0.2,1.4-0.5,2s-0.7,1-1.2,1.4s-1.1,0.7-1.8,0.9
	c-0.7,0.2-1.3,0.3-2,0.3c-1.3,0-2.4-0.3-3.3-0.9c-0.9-0.6-1.3-1.6-1.3-3c0-0.7,0.1-1.4,0.4-2c0.3-0.6,0.7-1.1,1.2-1.4
	c0.5-0.4,1.1-0.7,1.8-0.9s1.4-0.3,2.1-0.3c1.3,0,2.4,0.3,3.3,0.9C67.9,2.7,68.4,3.7,68.4,5z M82.1,17.8c0-0.2,0.1-0.3,0.1-0.5
	s0-0.3,0-0.5c0-0.6-0.1-1.1-0.3-1.7c-0.2-0.5-0.6-0.8-1.3-0.8c-0.6,0-1.1,0.2-1.7,0.7s-0.8,1.1-0.8,1.9c0,0.5,0.1,0.9,0.4,1.3
	c0.3,0.3,0.7,0.6,1.1,0.8c0.5,0.2,1,0.4,1.6,0.5s1.1,0.3,1.7,0.4c0.8,0.2,1.5,0.4,2.3,0.7c0.7,0.3,1.3,0.7,1.9,1.1
	c0.6,0.5,1,1,1.3,1.7s0.5,1.5,0.5,2.5c0,1.4-0.3,2.6-1,3.5c-0.6,0.9-1.5,1.7-2.7,2.3c-1.1,0.6-2.5,1-4,1.2s-3.2,0.3-4.9,0.3
	c-2.7,0-4.9-0.2-6.6-0.6c-1.8-0.4-3-0.8-3.7-1.1l1-5h6.7c0,0.2,0,0.3,0,0.5c0,0.1,0,0.3,0,0.5c0,0.8,0.2,1.4,0.5,1.8S75.1,30,76,30
	c1,0,1.6-0.3,2.1-0.8c0.4-0.5,0.6-1,0.6-1.5s-0.2-0.9-0.5-1.2c-0.3-0.3-0.8-0.6-1.3-0.9c-0.5-0.2-1.1-0.5-1.8-0.6
	c-0.6-0.2-1.3-0.4-1.9-0.5c-0.4-0.1-0.9-0.3-1.5-0.5c-0.5-0.2-1.1-0.6-1.6-1s-0.9-1-1.2-1.7c-0.3-0.7-0.5-1.5-0.5-2.6
	c0-1.5,0.4-2.7,1.1-3.6c0.7-1,1.6-1.8,2.8-2.4c1.1-0.6,2.4-1,3.9-1.3c1.4-0.3,2.9-0.4,4.3-0.4c1.8,0,3.5,0.2,5.2,0.5
	c1.6,0.3,2.9,0.8,4,1.3l-1.1,5C88.6,17.8,82.1,17.8,82.1,17.8z M98.4,41.1H88.3l6.2-29.6h8.1l0.9,3.2h0.3c1.2-1.3,2.5-2.2,4-2.7
	s2.9-0.8,4.3-0.8c1.2,0,2.1,0.2,2.9,0.5s1.4,0.8,1.9,1.4c0.5,0.6,0.8,1.3,1,2.1c0.2,0.8,0.3,1.7,0.3,2.6c0,0.5,0,1.2-0.1,2.1
	s-0.2,2-0.4,3.1c-0.2,1.1-0.6,2.3-1,3.5s-1,2.3-1.7,3.3s-1.6,1.8-2.7,2.4c-1.1,0.6-2.4,0.9-3.8,0.9c-0.8,0-1.6-0.1-2.4-0.3
	s-1.5-0.5-2.1-0.8s-1.2-0.7-1.7-1.2c-0.5-0.4-0.8-0.9-1.1-1.4h-0.3L98.4,41.1z M103.6,28.4c0.8,0,1.5-0.4,2-1.3c0.5-0.8,1-1.8,1.3-3
	c0.3-1.1,0.6-2.3,0.7-3.4s0.2-2,0.2-2.6c0-0.7-0.1-1.2-0.3-1.6c-0.2-0.4-0.6-0.6-1.2-0.6s-1.2,0.2-1.8,0.7c-0.6,0.4-1,0.8-1.2,1.2
	l-1.9,9.1c0.3,0.4,0.6,0.7,0.9,1.1C102.7,28.2,103.1,28.4,103.6,28.4z M128.5,32.8h-10.1l4.5-21.3h10.2L128.5,32.8z M134.4,5
	c0,0.8-0.2,1.4-0.5,2s-0.7,1-1.2,1.4s-1.1,0.7-1.8,0.9s-1.3,0.3-2,0.3c-1.3,0-2.4-0.3-3.3-0.9c-0.9-0.6-1.3-1.6-1.3-3
	c0-0.7,0.1-1.4,0.4-2s0.7-1.1,1.2-1.4c0.5-0.4,1.1-0.7,1.8-0.9s1.4-0.3,2.1-0.3c1.3,0,2.4,0.3,3.3,0.9C134,2.7,134.4,3.7,134.4,5z
	 M148.6,11c3.9,0,6.8,0.7,8.6,2.1c1.9,1.5,2.8,3.9,2.8,7.2c0,2.1-0.3,4-1,5.6c-0.7,1.7-1.7,3-2.9,4.1c-2.5,2.1-6.1,3.2-10.9,3.2
	c-4.1,0-7-0.8-8.7-2.3c-1.9-1.6-2.8-4-2.8-7.3c0-2.1,0.4-4.1,1.3-5.8c0.9-1.8,2.1-3.2,3.8-4.4C141.1,11.8,144.4,11,148.6,11z
	 M145.2,29.8c0.8,0,1.5-0.5,2.2-1.4c0.6-0.9,1.1-2.1,1.5-3.4s0.6-2.7,0.8-4.2c0.2-1.4,0.3-2.7,0.3-3.7c0-0.9-0.1-1.6-0.3-2.1
	s-0.6-0.7-1.2-0.7c-0.9,0-1.7,0.5-2.3,1.4c-0.6,1-1.2,2.1-1.6,3.4c-0.4,1.3-0.7,2.7-0.9,4.1s-0.3,2.5-0.3,3.4
	C143.5,28.8,144.1,29.8,145.2,29.8z"/>
</svg>
